HIERARCHY
ROOT Hips
{
  OFFSET 5.84602e-005 68.8428 3.50346
  CHANNELS 6 Xposition Yposition Zposition Zrotation Xrotation Yrotation
  JOINT Spine
  {
    OFFSET 0 8.597 -4.6522
    CHANNELS 3 Zrotation Xrotation Yrotation
    JOINT Spine1
    {
      OFFSET 0 7.8454 0.4098
      CHANNELS 3 Zrotation Xrotation Yrotation
      JOINT Spine2
      {
        OFFSET 0 9.7078 -2.1609
        CHANNELS 3 Zrotation Xrotation Yrotation
        JOINT Neck
        {
          OFFSET 0 21.8761 -0.4549
          CHANNELS 3 Zrotation Xrotation Yrotation
          JOINT Head
          {
            OFFSET 0 12.3537 3.3602
            CHANNELS 3 Zrotation Xrotation Yrotation
            End Site
            {
              OFFSET 0.0001 18.9506 0.5657
            }
          }
        }
        JOINT LeftShoulder
        {
          OFFSET 2.2086 21.1115 7.2329
          CHANNELS 3 Zrotation Xrotation Yrotation
          JOINT LeftArm
          {
            OFFSET 13.1193 3.0282 -4.8998
            CHANNELS 3 Zrotation Xrotation Yrotation
            JOINT LeftForeArm
            {
              OFFSET 27.4081 -0.0973053 -0.2375
              CHANNELS 3 Zrotation Xrotation Yrotation
              JOINT LeftHand
              {
                OFFSET 22.8641 0.0662994 -0.1369
                CHANNELS 3 Zrotation Xrotation Yrotation
                JOINT LeftHandIndex1
                {
                  OFFSET 8.8614 0.775009 2.4612
                  CHANNELS 3 Zrotation Xrotation Yrotation
                  JOINT LeftHandIndex2
                  {
                    OFFSET 3.3146 -0.808304 0.5841
                    CHANNELS 3 Zrotation Xrotation Yrotation
                    JOINT LeftHandIndex3
                    {
                      OFFSET 2.2628 -0.552002 0.3989
                      CHANNELS 3 Zrotation Xrotation Yrotation
                      End Site
                      {
                        OFFSET 1.6102 -0.4807 0.2612
                      }
                    }
                  }
                }
                JOINT LeftHandMiddle1
                {
                  OFFSET 8.9937 0.895004 0.2143
                  CHANNELS 3 Zrotation Xrotation Yrotation
                  JOINT LeftHandMiddle2
                  {
                    OFFSET 4.0984 0.0113983 -0.0242
                    CHANNELS 3 Zrotation Xrotation Yrotation
                    JOINT LeftHandMiddle3
                    {
                      OFFSET 2.2716 0.00689697 -0.0138001
                      CHANNELS 3 Zrotation Xrotation Yrotation
                      End Site
                      {
                        OFFSET 2.0404 -0.1441 0.0027
                      }
                    }
                  }
                }
                JOINT LeftHandRing1
                {
                  OFFSET 8.5234 0.597198 -2.0164
                  CHANNELS 3 Zrotation Xrotation Yrotation
                  JOINT LeftHandRing2
                  {
                    OFFSET 3.7188 -0.188293 -0.2328
                    CHANNELS 3 Zrotation Xrotation Yrotation
                    JOINT LeftHandRing3
                    {
                      OFFSET 2.1191 -0.106598 -0.1332
                      CHANNELS 3 Zrotation Xrotation Yrotation
                      End Site
                      {
                        OFFSET 1.8737 -0.2304 -0.0886
                      }
                    }
                  }
                }
                JOINT LeftHandPinky1
                {
                  OFFSET 7.9094 -0.601089 -3.4825
                  CHANNELS 3 Zrotation Xrotation Yrotation
                  JOINT LeftHandPinky2
                  {
                    OFFSET 2.2874 -0.477005 -0.6314
                    CHANNELS 3 Zrotation Xrotation Yrotation
                    JOINT LeftHandPinky3
                    {
                      OFFSET 1.6774 -0.349396 -0.4633
                      CHANNELS 3 Zrotation Xrotation Yrotation
                      End Site
                      {
                        OFFSET 1.4888 -0.4091 -0.3416
                      }
                    }
                  }
                }
                JOINT LeftHandThumb1
                {
                  OFFSET 1.833 -1.3875 1.3896
                  CHANNELS 3 Zrotation Xrotation Yrotation
                  JOINT LeftHandThumb2
                  {
                    OFFSET 3.4129 -1.121 2.5732
                    CHANNELS 3 Zrotation Xrotation Yrotation
                    JOINT LeftHandThumb3
                    {
                      OFFSET 2.2474 -0.804199 1.6192
                      CHANNELS 3 Zrotation Xrotation Yrotation
                      End Site
                      {
                        OFFSET 1.6527 -0.5689 1.1317
                      }
                    }
                  }
                }
              }
            }
          }
        }
        JOINT RightShoulder
        {
          OFFSET -2.2086 21.1115 7.2329
          CHANNELS 3 Zrotation Xrotation Yrotation
          JOINT RightArm
          {
            OFFSET -13.1216 3.0287 -4.9007
            CHANNELS 3 Zrotation Xrotation Yrotation
            JOINT RightForeArm
            {
              OFFSET -27.4081 -0.0973053 -0.2375
              CHANNELS 3 Zrotation Xrotation Yrotation
              JOINT RightHand
              {
                OFFSET -22.8641 0.0664063 -0.1369
                CHANNELS 3 Zrotation Xrotation Yrotation
                JOINT RightHandIndex1
                {
                  OFFSET -8.8614 0.774994 2.4612
                  CHANNELS 3 Zrotation Xrotation Yrotation
                  JOINT RightHandIndex2
                  {
                    OFFSET -3.3146 -0.808304 0.5841
                    CHANNELS 3 Zrotation Xrotation Yrotation
                    JOINT RightHandIndex3
                    {
                      OFFSET -2.2628 -0.552002 0.3989
                      CHANNELS 3 Zrotation Xrotation Yrotation
                      End Site
                      {
                        OFFSET -1.6102 -0.4807 0.2612
                      }
                    }
                  }
                }
                JOINT RightHandMiddle1
                {
                  OFFSET -8.9937 0.894989 0.2143
                  CHANNELS 3 Zrotation Xrotation Yrotation
                  JOINT RightHandMiddle2
                  {
                    OFFSET -4.0984 0.0113983 -0.0242
                    CHANNELS 3 Zrotation Xrotation Yrotation
                    JOINT RightHandMiddle3
                    {
                      OFFSET -2.2716 0.00691223 -0.0138001
                      CHANNELS 3 Zrotation Xrotation Yrotation
                      End Site
                      {
                        OFFSET -2.0404 -0.1441 0.0027
                      }
                    }
                  }
                }
                JOINT RightHandRing1
                {
                  OFFSET -8.5234 0.597198 -2.0164
                  CHANNELS 3 Zrotation Xrotation Yrotation
                  JOINT RightHandRing2
                  {
                    OFFSET -3.7188 -0.188309 -0.2328
                    CHANNELS 3 Zrotation Xrotation Yrotation
                    JOINT RightHandRing3
                    {
                      OFFSET -2.1191 -0.106598 -0.1332
                      CHANNELS 3 Zrotation Xrotation Yrotation
                      End Site
                      {
                        OFFSET -1.8737 -0.2304 -0.0886
                      }
                    }
                  }
                }
                JOINT RightHandPinky1
                {
                  OFFSET -7.9094 -0.601105 -3.4825
                  CHANNELS 3 Zrotation Xrotation Yrotation
                  JOINT RightHandPinky2
                  {
                    OFFSET -2.2874 -0.477005 -0.6314
                    CHANNELS 3 Zrotation Xrotation Yrotation
                    JOINT RightHandPinky3
                    {
                      OFFSET -1.6774 -0.349396 -0.4633
                      CHANNELS 3 Zrotation Xrotation Yrotation
                      End Site
                      {
                        OFFSET -1.4888 -0.4091 -0.3416
                      }
                    }
                  }
                }
                JOINT RightHandThumb1
                {
                  OFFSET -1.833 -1.38751 1.3896
                  CHANNELS 3 Zrotation Xrotation Yrotation
                  JOINT RightHandThumb2
                  {
                    OFFSET -3.41299 -1.12099 2.5732
                    CHANNELS 3 Zrotation Xrotation Yrotation
                    JOINT RightHandThumb3
                    {
                      OFFSET -2.24741 -0.804108 1.6192
                      CHANNELS 3 Zrotation Xrotation Yrotation
                      End Site
                      {
                        OFFSET -1.6527 -0.5689 1.1317
                      }
                    }
                  }
                }
              }
            }
          }
        }
      }
    }
  }
  JOINT RightUpLeg
  {
    OFFSET -9.1966 3.8861 -0.7581
    CHANNELS 3 Zrotation Xrotation Yrotation
    JOINT RightLeg
    {
      OFFSET -0.7359 -41.0265 0
      CHANNELS 3 Zrotation Xrotation Yrotation
      JOINT RightFoot
      {
        OFFSET 0 -40.2855 0
        CHANNELS 3 Zrotation Xrotation Yrotation
        JOINT RightToeBase
        {
          OFFSET 0 -5.6122 11.7359
          CHANNELS 3 Zrotation Xrotation Yrotation
          End Site
          {
            OFFSET 0 0 7.8731
          }
        }
      }
    }
  }
  JOINT LeftUpLeg
  {
    OFFSET 9.1965 3.8864 -0.7581
    CHANNELS 3 Zrotation Xrotation Yrotation
    JOINT LeftLeg
    {
      OFFSET 0.7359 -41.0268 0
      CHANNELS 3 Zrotation Xrotation Yrotation
      JOINT LeftFoot
      {
        OFFSET 0 -40.2855 0
        CHANNELS 3 Zrotation Xrotation Yrotation
        JOINT LeftToeBase
        {
          OFFSET 0 -5.6122 11.7359
          CHANNELS 3 Zrotation Xrotation Yrotation
          End Site
          {
            OFFSET 0 0 7.8731
          }
        }
      }
    }
  }
}
MOTION
Frames:	5
Frame Time:	0.0333333
5.84602e-005 68.8428 3.50346 0 0 -0 0 0 -0 0 0 -0 0 0 -0 0 0 -0 0 0 -0 0 0 -0 0 0 -0 0 0 -0 0 0 -0 0 0 -0 0 0 -0 0 0 -0 0 0 -0 -0.0146107 -8.87603e-005 -2.63497e-007 2.99804e-018 -2.42657e-020 -1.42182e-022 0 0 -0 -0.0187562 -0.001176 5.858e-005 5.06224e-018 3.88251e-019 1.21329e-020 0 0 -0 -0.012269 -0.00324817 0.000675346 -1.74678e-018 3.88251e-019 -0 0 0 -0 0 0 -0 0 0 -0 0 0 -0 0 0 -0 0 0 -0 0 0 -0 0 0 -0 0 0 -0 0 0 -0 0 0 -0 0.0149955 -9.10982e-005 2.64101e-007 -9.69331e-018 1.21329e-020 -4.7394e-023 0 0 -0 0.0189956 -0.00119102 -5.96516e-005 -5.41541e-019 0 2.42657e-020 0 0 -0 0.0122698 -0.00324857 -0.000673756 -2.00796e-019 0 -1.94126e-019 0 0 -0 0 0 -0 0 0 -0 3.39842 1.33031 -0.0637918 -5.65207e-008 0.834868 -0.000436188 -3.39935 -2.16518 -0.0642563 -8.89002e-024 -1.18485e-023 -1.48106e-024 -3.39844 1.35642 0.0640283 -3.18788e-007 0.782166 -0.000588827 3.39931 -2.13858 0.0634662 1.1399e-023 0 -0 
39.7239 20.4363 3.68047 -180 -85.9956 -180 -1.84687 1.14332 -0.0331591 -3.69417 2.2871 -0.0294382 -3.69417 2.28711 -0.0294401 -19.1649 -11.5488 -2.95233 -1.20478 -0.339683 1.20478 6.5644 3.23887 7.46443 -13.1547 50.1316 37.7186 31.713 28.3655 -50.1659 -5.87162 -8.82584 7.60106 3.75206e-015 5.96354e-016 -0 6.95746e-016 3.97569e-016 6.36111e-015 7.95139e-016 1.98785e-016 3.18055e-015 3.75206e-015 5.96354e-016 -0 -0.0146254 -8.87676e-005 -8.58685e-007 2.03754e-015 -3.97569e-016 -0 3.75206e-015 5.96354e-016 -0 -0.0187571 -0.00117576 5.93146e-005 8.44835e-016 -5.96354e-016 1.59028e-015 3.75206e-015 5.96354e-016 -0 -0.0123067 -0.00325842 0.000678831 -2.73329e-016 1.98785e-016 -0 3.75206e-015 5.96354e-016 -0 6.95746e-016 3.97569e-016 6.36111e-015 7.95139e-016 1.98785e-016 3.18055e-015 -4.84853 2.41848 -14.4219 0.940234 53.2144 -3.57508 -3.1681 40.8617 4.49772 -2.84593 -6.44887 21.6148 -2.23633e-016 0 1.59028e-015 3.00662e-015 -1.98785e-016 1.59028e-015 3.13086e-015 -1.98785e-016 1.59028e-015 -2.23633e-016 0 1.59028e-015 0.0149927 -9.10017e-005 -1.21863e-006 -2.65874e-015 9.93923e-016 4.77083e-015 -2.23633e-016 0 1.59028e-015 0.018996 -0.00119092 -5.84416e-005 2.5842e-015 5.96354e-016 -3.18055e-015 -2.23633e-016 0 1.59028e-015 0.012252 -0.00324303 -0.000675961 -2.43511e-015 0 -0 -2.23633e-016 0 1.59028e-015 3.00662e-015 -1.98785e-016 1.59028e-015 3.13086e-015 -1.98785e-016 1.59028e-015 -63.7185 -13.2247 -37.6237 -130.763 72.9802 137.553 -8.05355 -0.313384 0.977555 -2.2218e-007 1.89091e-006 2.86461e-006 61.6707 -14.2902 33.9892 127.03 74.0208 -134.01 4.50064 1.06688 0.569074 2.99346e-006 4.62789e-007 -1.80423e-007 
39.724 20.2987 3.67879 -180 -85.9956 -180 -1.84711 1.09985 -0.0371518 -3.69453 2.20035 -0.0388288 -3.69453 2.20033 -0.0388316 -19.0979 -10.5555 -2.60108 -1.20489 -1.22598 1.18602 5.79679 3.04516 6.58624 -13.7799 49.8747 39.021 30.9309 29.1203 -48.8554 -5.02878 -8.48417 7.1682 -1.80235e-008 2.11803e-007 1.89044e-008 8.62926e-007 -3.52362e-009 8.31496e-007 -1.80235e-008 2.11803e-007 1.89044e-008 -1.80235e-008 2.11803e-007 1.89044e-008 -0.01462 -8.86909e-005 7.26652e-007 -1.8024e-008 2.118e-007 1.89315e-008 -1.80235e-008 2.11803e-007 1.89044e-008 -0.018755 -0.00117597 6.1235e-005 -1.80239e-008 2.118e-007 1.89393e-008 -1.80235e-008 2.11803e-007 1.89044e-008 -0.0122804 -0.00325096 0.000676996 -1.80222e-008 2.11801e-007 1.89277e-008 -1.80235e-008 2.11803e-007 1.89044e-008 8.62926e-007 -3.52362e-009 8.31496e-007 -1.80235e-008 2.11803e-007 1.89044e-008 -4.84862 2.41853 -14.4219 0.940237 53.2144 -3.5751 -3.1681 40.8617 4.49771 -3.04529 -6.22207 21.4405 -1.26725e-015 1.98785e-016 4.77083e-015 -1.14301e-015 1.98785e-016 3.18055e-015 -1.16786e-015 0 1.59028e-015 -1.26725e-015 1.98785e-016 4.77083e-015 0.0149978 -9.09888e-005 4.03169e-007 -2.43511e-015 0 -1.59028e-015 -1.26725e-015 1.98785e-016 4.77083e-015 0.0189926 -0.00119114 -6.00539e-005 -2.16178e-015 3.97569e-016 -0 -1.26725e-015 1.98785e-016 4.77083e-015 0.0122755 -0.00324984 -0.000675588 -1.46604e-015 1.98785e-016 -3.18055e-015 -1.26725e-015 1.98785e-016 4.77083e-015 -1.14301e-015 1.98785e-016 3.18055e-015 -1.16786e-015 0 1.59028e-015 -63.2728 -13.61 -37.1115 -130.772 72.978 137.558 -7.55832 -0.263583 0.54603 -1.78142e-006 -2.17964e-006 5.13262e-008 61.4113 -14.5732 33.7015 127.039 74.0189 -134.017 4.21589 1.11188 0.840367 -4.26381e-007 -2.29462e-006 2.36861e-006 
39.7241 20.161 3.6771 -180 -85.9956 -180 -1.84739 1.05612 -0.0411714 -3.69494 2.11297 -0.0482715 -3.69494 2.11299 -0.0482693 -19.0367 -9.56004 -2.25164 -1.20529 -2.11309 1.16725 5.02518 2.86281 5.70409 -14.3932 49.6084 40.3135 30.1214 29.8608 -47.5204 -4.18293 -8.14839 6.73007 9.93923e-017 -5.96354e-016 1.59028e-015 9.93923e-017 -5.96354e-016 -0 1.73937e-015 0 1.59028e-015 9.93923e-017 -5.96354e-016 1.59028e-015 -0.0146157 -8.84635e-005 -2.83353e-007 1.09332e-015 -1.98785e-016 -0 9.93923e-017 -5.96354e-016 1.59028e-015 -0.018736 -0.00117465 6.00249e-005 1.68967e-015 1.78906e-015 -1.59028e-015 9.93923e-017 -5.96354e-016 1.59028e-015 -0.0122691 -0.00324765 0.000675427 -3.77691e-015 1.39149e-015 -0 9.93923e-017 -5.96354e-016 1.59028e-015 9.93923e-017 -5.96354e-016 -0 1.73937e-015 0 1.59028e-015 -4.84857 2.41849 -14.4219 0.940237 53.2144 -3.57509 -3.16809 40.8617 4.49772 -3.24391 -5.99463 21.2671 1.88845e-015 -5.96354e-016 -0 2.73329e-016 -7.95139e-016 -1.59028e-015 1.83876e-015 0 -1.59028e-015 1.88845e-015 -5.96354e-016 -0 0.0149889 -9.10644e-005 -9.41512e-007 2.01269e-015 1.98785e-016 1.59028e-015 1.88845e-015 -5.96354e-016 -0 0.0189958 -0.00119108 -5.96613e-005 -3.57812e-015 3.97569e-016 -1.59028e-015 1.88845e-015 -5.96354e-016 -0 0.0122718 -0.00324827 -0.00067653 2.23633e-016 -5.96354e-016 -0 1.88845e-015 -5.96354e-016 -0 2.73329e-016 -7.95139e-016 -1.59028e-015 1.83876e-015 0 -1.59028e-015 -62.8226 -13.9914 -36.5951 -130.781 72.9759 137.563 -7.06242 -0.217408 0.113812 1.233e-006 -7.52944e-008 -2.79434e-006 61.15 -14.8551 33.412 127.048 74.0171 -134.023 3.93083 1.15565 1.11193 -2.72218e-006 -4.52369e-007 -2.98385e-006 
39.7242 20.0233 3.6754 -180 -85.9956 -180 -1.84762 1.01207 -0.0452011 -3.69532 2.02508 -0.057751 -3.69532 2.02506 -0.0577529 -18.9819 -8.56334 -1.90381 -1.206 -3.001 1.14843 4.24965 2.69219 4.81829 -14.9943 49.3331 41.5956 29.2843 30.5859 -46.1604 -3.33418 -7.81866 6.28681 1.7077e-008 -7.52207e-008 8.47279e-007 8.29429e-007 2.83218e-007 1.72818e-009 1.7077e-008 -7.52207e-008 8.47279e-007 1.7077e-008 -7.52207e-008 8.47279e-007 -0.0145956 -8.85544e-005 -1.88169e-006 3.75839e-007 -1.01213e-008 1.14065e-006 1.7077e-008 -7.52207e-008 8.47279e-007 -0.0187405 -0.0011748 6.01224e-005 -3.42195e-007 -1.40686e-007 5.53896e-007 1.7077e-008 -7.52207e-008 8.47279e-007 -0.0122793 -0.00325038 0.000677584 1.70929e-008 -7.53136e-008 8.47271e-007 1.7077e-008 -7.52207e-008 8.47279e-007 8.29429e-007 2.83218e-007 1.72818e-009 1.7077e-008 -7.52207e-008 8.47279e-007 -4.8486 2.41851 -14.4219 0.940241 53.2144 -3.57509 -3.16809 40.8617 4.49772 -3.44177 -5.76656 21.0945 -1.963e-015 1.98785e-016 -3.18055e-015 -1.93815e-015 1.98785e-016 -4.77083e-015 -1.93815e-015 1.98785e-016 -1.59028e-015 -1.963e-015 1.98785e-016 -3.18055e-015 0.0149944 -9.10996e-005 -6.21533e-007 2.48481e-017 0 -1.59028e-015 -1.963e-015 1.98785e-016 -3.18055e-015 0.0190046 -0.00119154 -6.03702e-005 9.69075e-016 1.98785e-016 3.18055e-015 -1.963e-015 1.98785e-016 -3.18055e-015 0.0122825 -0.0032514 -0.000676655 5.13482e-007 -1.97323e-008 2.61843e-008 -1.963e-015 1.98785e-016 -3.18055e-015 -1.93815e-015 1.98785e-016 -4.77083e-015 -1.93815e-015 1.98785e-016 -1.59028e-015 -62.3678 -14.3692 -36.0744 -130.79 72.9737 137.568 -6.56593 -0.174904 -0.319083 -4.38751e-007 1.51715e-006 -3.35091e-006 60.8868 -15.1358 33.1207 127.058 74.0152 -134.03 3.64546 1.19805 1.38382 -5.47683e-007 2.23934e-006 -2.74277e-006 
